<svg width="17" height="18" viewBox="0 0 17 18" fill="none" xmlns="http://www.w3.org/2000/svg">
<path d="M8.48915 0.746582C9.75571 0.746582 10.9393 1.1026 11.9434 1.72176C11.6442 2.04137 11.4129 2.42502 11.2722 2.84987C10.465 2.3479 9.51098 2.05873 8.48915 2.05873C5.5801 2.05873 3.23248 4.39807 3.23206 7.30731V11.1647L2.05448 13.8713H14.9314L13.7463 11.1656L13.7464 7.31856L13.7431 7.12156C13.7399 7.02676 13.7341 6.93263 13.7259 6.83923C13.8756 6.86163 14.0287 6.87324 14.1845 6.87324C14.4804 6.87324 14.7664 6.83141 15.037 6.75337C15.0464 6.86405 15.0531 6.97554 15.0569 7.08779L15.0606 7.30731V10.8912L16.2697 13.652C16.3303 13.7901 16.3615 13.9392 16.3615 14.09C16.3615 14.6939 15.8711 15.1835 15.2663 15.1835L11.1177 15.1848C11.1177 16.6341 9.94086 17.8091 8.48915 17.8091C7.08933 17.8091 5.94504 16.7166 5.86509 15.339L5.86023 15.1828L1.72052 15.1835C1.57039 15.1835 1.42186 15.1527 1.28417 15.093C0.729372 14.8524 0.474966 14.2083 0.715949 13.6544L1.91778 10.892V7.30722C1.9183 3.67276 4.85484 0.746582 8.48915 0.746582ZM9.80305 15.1828L7.1749 15.1848C7.1749 15.9095 7.76334 16.4969 8.48915 16.4969C9.17235 16.4969 9.73375 15.9766 9.79745 15.3111L9.80305 15.1828ZM12.0289 3.42108C12.1122 2.95983 12.3403 2.54886 12.6646 2.2368C13.0585 1.85776 13.5943 1.62466 14.1845 1.62466C15.3943 1.62466 16.375 2.60377 16.375 3.81157C16.375 4.76785 15.7602 5.58076 14.9037 5.87787C14.6785 5.95602 14.4364 5.99848 14.1845 5.99848C13.9672 5.99848 13.7573 5.96688 13.5591 5.90802C12.6541 5.63928 11.9941 4.80237 11.9941 3.81157C11.9941 3.67829 12.006 3.54778 12.0289 3.42108Z" fill="#535252"/>
</svg>
