<svg width="35" height="35" viewBox="0 0 35 35" fill="none" xmlns="http://www.w3.org/2000/svg">
<path d="M13.125 7.62778C13.125 5.81559 14.5941 4.34653 16.4062 4.34653H18.5938C20.4059 4.34653 21.875 5.81559 21.875 7.62778V30.6257C18.9949 30.6257 16.0539 30.6257 13.125 30.6257V7.62778ZM10.9375 14.5841H7.65625C5.84407 14.5841 4.375 16.0531 4.375 17.8653V29.532C4.375 30.136 4.86469 30.6257 5.46875 30.6257H10.9375V14.5841ZM24.0625 30.6257H29.5312C30.1353 30.6257 30.625 30.136 30.625 29.532V13.4903C30.625 11.6781 29.1559 10.209 27.3438 10.209H24.0625V30.6257Z" fill="#535252"/>
</svg>
