<svg width="300" height="80" viewBox="0 0 300 80" fill="none" xmlns="http://www.w3.org/2000/svg">
<path d="M9.2373 11.8984L17.4014 29.7305L25.5654 11.8984H34.3472L21.4834 36.7666V51H13.3193V36.7666L0.428711 11.8984H9.2373ZM49.0371 51.5371C46.7812 51.5371 44.7581 51.179 42.9678 50.4629C41.1774 49.7288 39.6556 48.7173 38.4023 47.4282C37.167 46.1392 36.2181 44.6442 35.5557 42.9434C34.8932 41.2246 34.562 39.3984 34.562 37.4648V36.3906C34.562 34.1885 34.8753 32.1743 35.502 30.3481C36.1286 28.522 37.0238 26.9375 38.1875 25.5947C39.3691 24.252 40.8014 23.2225 42.4844 22.5063C44.1673 21.7723 46.0651 21.4053 48.1777 21.4053C50.2367 21.4053 52.0628 21.7454 53.6562 22.4258C55.2497 23.1061 56.5835 24.0729 57.6577 25.3262C58.7498 26.5794 59.5734 28.0833 60.1284 29.8379C60.6834 31.5745 60.9609 33.5081 60.9609 35.6387V38.8613H37.8652V33.7051H53.3608V33.1143C53.3608 32.04 53.1639 31.0822 52.77 30.2407C52.394 29.3813 51.8211 28.701 51.0513 28.1997C50.2814 27.6984 49.2967 27.4478 48.0972 27.4478C47.0767 27.4478 46.1994 27.6715 45.4653 28.1191C44.7313 28.5667 44.1315 29.1934 43.666 29.999C43.2184 30.8047 42.8783 31.7536 42.6455 32.8457C42.4307 33.9199 42.3232 35.1016 42.3232 36.3906V37.4648C42.3232 38.6286 42.4844 39.7028 42.8066 40.6875C43.1468 41.6722 43.6213 42.5226 44.23 43.2388C44.8566 43.9549 45.6086 44.5099 46.4858 44.9038C47.381 45.2977 48.3926 45.4946 49.5205 45.4946C50.917 45.4946 52.215 45.2261 53.4146 44.689C54.632 44.134 55.6794 43.3014 56.5566 42.1914L60.3164 46.2734C59.7077 47.1507 58.8752 47.9922 57.8188 48.7979C56.7804 49.6035 55.5272 50.266 54.0591 50.7852C52.591 51.2865 50.917 51.5371 49.0371 51.5371ZM73.5293 9.75V51H65.7681V9.75H73.5293ZM88.085 9.75V51H80.3237V9.75H88.085ZM93.2412 36.7666V36.2026C93.2412 34.0721 93.5456 32.1117 94.1543 30.3213C94.763 28.513 95.6493 26.9465 96.813 25.6216C97.9767 24.2967 99.409 23.2673 101.11 22.5332C102.811 21.7812 104.762 21.4053 106.964 21.4053C109.167 21.4053 111.127 21.7812 112.846 22.5332C114.564 23.2673 116.006 24.2967 117.169 25.6216C118.351 26.9465 119.246 28.513 119.855 30.3213C120.464 32.1117 120.768 34.0721 120.768 36.2026V36.7666C120.768 38.8792 120.464 40.8397 119.855 42.6479C119.246 44.4383 118.351 46.0049 117.169 47.3477C116.006 48.6725 114.573 49.702 112.873 50.436C111.172 51.1701 109.22 51.5371 107.018 51.5371C104.816 51.5371 102.855 51.1701 101.137 50.436C99.4359 49.702 97.9946 48.6725 96.813 47.3477C95.6493 46.0049 94.763 44.4383 94.1543 42.6479C93.5456 40.8397 93.2412 38.8792 93.2412 36.7666ZM100.976 36.2026V36.7666C100.976 37.984 101.083 39.1209 101.298 40.1772C101.513 41.2336 101.853 42.1646 102.318 42.9702C102.802 43.758 103.428 44.3757 104.198 44.8232C104.968 45.2708 105.908 45.4946 107.018 45.4946C108.092 45.4946 109.014 45.2708 109.784 44.8232C110.554 44.3757 111.172 43.758 111.637 42.9702C112.103 42.1646 112.443 41.2336 112.658 40.1772C112.89 39.1209 113.007 37.984 113.007 36.7666V36.2026C113.007 35.021 112.89 33.911 112.658 32.8726C112.443 31.8162 112.094 30.8853 111.61 30.0796C111.145 29.256 110.527 28.6115 109.757 28.146C108.987 27.6805 108.056 27.4478 106.964 27.4478C105.872 27.4478 104.941 27.6805 104.171 28.146C103.419 28.6115 102.802 29.256 102.318 30.0796C101.853 30.8853 101.513 31.8162 101.298 32.8726C101.083 33.911 100.976 35.021 100.976 36.2026ZM133.82 43.4805L139.862 21.9424H144.777L143.192 30.4019L137.15 51H133.041L133.82 43.4805ZM130.758 21.9424L135.082 43.4536L135.485 51H130.651L123.292 21.9424H130.758ZM150.309 43.1045L154.525 21.9424H162.018L154.66 51H149.853L150.309 43.1045ZM145.448 21.9424L151.464 43.3193L152.296 51H148.161L142.118 30.4287L140.587 21.9424H145.448Z" fill="white"/>
<path d="M145.653 56.3906C145.366 56.1042 145.158 55.8307 145.028 55.5703C144.924 55.2839 144.846 55.0104 144.793 54.75C144.741 54.4635 144.741 54.1771 144.793 53.8906C144.898 53.526 145.054 53.1875 145.262 52.875C145.444 52.5885 145.692 52.3021 146.004 52.0156C146.317 51.7031 146.734 51.4167 147.254 51.1562C147.593 50.3229 147.892 49.4505 148.153 48.5391C148.439 47.6016 148.687 46.7552 148.895 46C149.129 45.1146 149.338 44.2292 149.52 43.3438C150.171 41.1302 150.51 39.3333 150.536 37.9531C150.562 36.5469 150.536 35.6224 150.458 35.1797C150.431 34.9974 150.405 34.8151 150.379 34.6328C150.327 34.4766 150.275 34.3073 150.223 34.125C150.197 33.9167 150.158 33.7214 150.106 33.5391C150.392 33.3828 150.64 33.2526 150.848 33.1484C151.083 33.0443 151.278 32.9661 151.434 32.9141C151.616 32.8359 151.786 32.7839 151.942 32.7578C152.541 32.6276 153.101 32.5625 153.622 32.5625C154.168 32.5365 154.468 32.6276 154.52 32.8359C154.546 32.9661 154.572 33.2005 154.598 33.5391C154.65 33.8776 154.676 34.2943 154.676 34.7891C154.676 35.2839 154.637 35.8438 154.559 36.4688C154.481 37.0677 154.338 37.7057 154.129 38.3828C153.947 38.9818 153.7 39.8151 153.387 40.8828C153.101 41.7943 152.723 43.0182 152.254 44.5547C151.786 46.0651 151.174 48.0052 150.418 50.375C151.2 50.1146 152.059 49.8672 152.997 49.6328C153.934 49.3984 154.885 49.2031 155.848 49.0469C156.838 48.8906 157.814 48.7734 158.778 48.6953C159.767 48.6172 160.679 48.6042 161.512 48.6562C161.668 48.6562 161.773 48.7344 161.825 48.8906C161.903 49.0208 161.903 49.1641 161.825 49.3203C161.773 49.4766 161.629 49.6328 161.395 49.7891C161.187 49.9193 160.874 49.9974 160.458 50.0234C159.937 50.0755 159.364 50.1406 158.739 50.2188C158.114 50.2708 157.463 50.362 156.786 50.4922C156.135 50.5964 155.484 50.7396 154.833 50.9219C154.181 51.0781 153.569 51.2734 152.997 51.5078C152.554 51.6641 152.111 51.8203 151.668 51.9766C151.304 52.1068 150.913 52.263 150.497 52.4453C150.106 52.6016 149.78 52.7448 149.52 52.875L148.622 55.7266C150.132 56.7943 151.291 57.888 152.098 59.0078C152.931 60.1276 153.53 61.1562 153.895 62.0938C154.338 63.1875 154.585 64.2552 154.637 65.2969C154.637 66.4427 154.468 67.5885 154.129 68.7344C153.791 69.9062 153.335 71.013 152.762 72.0547C152.215 73.1224 151.564 74.112 150.809 75.0234C150.08 75.9349 149.299 76.7161 148.465 77.3672C147.658 78.0182 146.825 78.513 145.965 78.8516C145.132 79.1901 144.338 79.3203 143.583 79.2422C143.036 79.1901 142.58 79.0078 142.215 78.6953C141.851 78.4089 141.577 78.0312 141.395 77.5625C141.213 77.1198 141.109 76.612 141.083 76.0391C141.056 75.4922 141.109 74.9453 141.239 74.3984C141.343 73.8516 141.564 72.8359 141.903 71.3516C142.189 70.1016 142.632 68.2786 143.231 65.8828C143.83 63.513 144.637 60.349 145.653 56.3906ZM147.958 58.2266C147.593 59.5286 147.267 60.7266 146.981 61.8203C146.721 62.9141 146.499 63.8776 146.317 64.7109C146.083 65.6745 145.9 66.5469 145.77 67.3281C145.536 68.3177 145.288 69.2943 145.028 70.2578C144.793 71.2214 144.611 72.0807 144.481 72.8359C144.325 73.6172 144.26 74.2422 144.286 74.7109C144.312 75.1797 144.481 75.4141 144.793 75.4141C145.549 75.4661 146.33 75.1667 147.137 74.5156C147.971 73.8906 148.726 73.0833 149.403 72.0938C150.08 71.1302 150.64 70.0755 151.083 68.9297C151.525 67.8099 151.747 66.7682 151.747 65.8047C151.747 64.737 151.577 63.6823 151.239 62.6406C151.004 62.0938 150.731 61.5599 150.418 61.0391C150.132 60.5964 149.78 60.1276 149.364 59.6328C148.973 59.112 148.504 58.6432 147.958 58.2266ZM177.918 52.6797C177.554 53.2005 177.085 53.8516 176.512 54.6328C175.939 55.388 175.34 56.1562 174.715 56.9375C174.116 57.6927 173.517 58.3958 172.918 59.0469C172.346 59.6719 171.864 60.1146 171.473 60.375C171.213 60.5312 170.913 60.6615 170.575 60.7656C170.236 60.8698 169.885 60.9349 169.52 60.9609C169.181 60.987 168.856 60.9609 168.543 60.8828C168.231 60.8307 167.958 60.7266 167.723 60.5703C167.489 60.388 167.293 60.1276 167.137 59.7891C167.007 59.5026 166.877 59.125 166.747 58.6562C166.642 58.1875 166.603 57.6016 166.629 56.8984C166.004 57.9401 165.314 58.7474 164.559 59.3203C163.804 59.8672 163.088 60.2708 162.411 60.5312C161.629 60.8177 160.848 60.987 160.067 61.0391C159.702 61.0391 159.312 60.9089 158.895 60.6484C158.478 60.4141 158.127 60.0365 157.84 59.5156C157.554 58.9688 157.372 58.2786 157.293 57.4453C157.215 56.5859 157.319 55.5703 157.606 54.3984C157.971 52.8099 158.543 51.3646 159.325 50.0625C160.132 48.7604 161.004 47.6536 161.942 46.7422C162.879 45.8047 163.804 45.1016 164.715 44.6328C165.627 44.1641 166.382 43.9557 166.981 44.0078C167.684 44.138 168.257 44.3464 168.7 44.6328C169.064 44.8932 169.299 45.2839 169.403 45.8047C169.533 46.2995 169.325 46.9635 168.778 47.7969C169.142 47.7188 169.442 47.6667 169.676 47.6406C169.937 47.6146 170.132 47.6016 170.262 47.6016C170.418 47.6016 170.523 47.6146 170.575 47.6406C170.601 47.6927 170.614 47.8099 170.614 47.9922C170.614 48.1484 170.575 48.4479 170.497 48.8906C170.418 49.3333 170.301 49.9323 170.145 50.6875C169.989 51.4427 169.78 52.4193 169.52 53.6172C169.468 53.8516 169.416 54.0729 169.364 54.2812C169.338 54.4635 169.299 54.6589 169.247 54.8672C169.221 55.0495 169.181 55.2708 169.129 55.5312C169.077 55.7917 169.012 56.1172 168.934 56.5078C168.908 56.7422 168.895 57.0026 168.895 57.2891C168.921 57.5495 168.973 57.7969 169.051 58.0312C169.129 58.2656 169.247 58.4609 169.403 58.6172C169.585 58.7474 169.833 58.8125 170.145 58.8125C170.405 58.8125 170.744 58.6562 171.161 58.3438C171.577 58.0052 172.02 57.5885 172.489 57.0938C172.958 56.5729 173.439 56.013 173.934 55.4141C174.455 54.7891 174.937 54.1901 175.379 53.6172C175.822 53.0443 176.213 52.5365 176.551 52.0938C176.916 51.651 177.176 51.3255 177.333 51.1172C177.541 50.8828 177.749 50.7526 177.958 50.7266C178.166 50.6745 178.322 50.7266 178.426 50.8828C178.53 51.0391 178.543 51.2734 178.465 51.5859C178.413 51.8984 178.231 52.263 177.918 52.6797ZM166.473 54.3984C166.603 53.8776 166.76 53.2656 166.942 52.5625C167.124 51.8594 167.28 51.1823 167.411 50.5312C167.541 49.8802 167.632 49.3464 167.684 48.9297C167.762 48.487 167.749 48.2786 167.645 48.3047C167.515 48.3307 167.372 48.3698 167.215 48.4219C167.085 48.474 166.916 48.513 166.708 48.5391C166.499 48.5651 166.291 48.6042 166.083 48.6562C166.291 48.2396 166.408 47.901 166.434 47.6406C166.486 47.3542 166.499 47.1328 166.473 46.9766C166.447 46.7943 166.395 46.651 166.317 46.5469C166.03 46.3125 165.523 46.5078 164.793 47.1328C164.09 47.7318 163.27 48.8516 162.333 50.4922C161.942 51.1693 161.629 51.8984 161.395 52.6797C161.161 53.4349 160.991 54.151 160.887 54.8281C160.809 55.5052 160.796 56.1042 160.848 56.625C160.9 57.1198 161.004 57.4453 161.161 57.6016C161.447 57.888 161.773 58.0312 162.137 58.0312C162.502 58.0052 162.866 57.901 163.231 57.7188C163.622 57.5104 163.999 57.25 164.364 56.9375C164.754 56.625 165.093 56.2995 165.379 55.9609C165.692 55.6224 165.939 55.3099 166.122 55.0234C166.33 54.737 166.447 54.5286 166.473 54.3984ZM193.504 58.6562C193.504 58.1094 193.556 57.4844 193.661 56.7812C193.791 56.0781 193.947 55.362 194.129 54.6328C194.312 53.8776 194.494 53.1484 194.676 52.4453C194.859 51.7422 195.015 51.1172 195.145 50.5703C195.301 49.8932 195.288 49.3724 195.106 49.0078C194.924 48.6432 194.611 48.4609 194.168 48.4609C193.96 48.4609 193.543 48.6432 192.918 49.0078C192.319 49.3724 191.655 50.0104 190.926 50.9219C190.223 51.8073 189.52 53.0182 188.817 54.5547C188.14 56.0651 187.606 57.9922 187.215 60.3359C186.721 60.5964 186.252 60.7656 185.809 60.8438C185.575 60.8958 185.366 60.9349 185.184 60.9609C184.663 60.987 184.325 60.8958 184.168 60.6875C184.012 60.5052 184.038 60.0365 184.247 59.2812C184.351 58.9167 184.533 58.3307 184.793 57.5234C185.08 56.7161 185.353 55.8438 185.614 54.9062C185.874 53.9427 186.096 52.9922 186.278 52.0547C186.486 51.0911 186.59 50.2578 186.59 49.5547C186.59 49.0599 186.499 48.7214 186.317 48.5391C186.161 48.3568 185.926 48.2656 185.614 48.2656C185.379 48.2656 184.989 48.3958 184.442 48.6562C183.895 48.9167 183.283 49.4245 182.606 50.1797C181.929 50.9349 181.252 51.9896 180.575 53.3438C179.924 54.6719 179.364 56.4036 178.895 58.5391V58.4609C178.843 58.6693 178.791 58.8776 178.739 59.0859C178.687 59.2682 178.648 59.4635 178.622 59.6719C178.596 59.8802 178.556 60.0755 178.504 60.2578L176.551 61.1172C176.421 61.1693 176.252 61.2083 176.043 61.2344C175.861 61.2604 175.679 61.2214 175.497 61.1172C175.34 61.0391 175.223 60.8568 175.145 60.5703C175.067 60.2839 175.093 59.8542 175.223 59.2812L177.684 49.0859C177.762 48.7474 177.827 48.4219 177.879 48.1094C177.931 47.8229 177.958 47.5495 177.958 47.2891C177.984 47.0026 177.971 46.7682 177.918 46.5859C178.361 46.3776 178.752 46.2214 179.09 46.1172C179.429 46.013 179.702 45.9349 179.911 45.8828C180.171 45.8047 180.392 45.7656 180.575 45.7656C181.408 45.7656 181.681 46.4818 181.395 47.9141C181.291 48.3307 181.135 48.9427 180.926 49.75C181.421 49.125 181.942 48.5391 182.489 47.9922C183.062 47.4193 183.635 46.9115 184.208 46.4688C184.78 46.026 185.353 45.6745 185.926 45.4141C186.525 45.1536 187.111 45.0234 187.684 45.0234C188.127 45.0234 188.491 45.1536 188.778 45.4141C189.09 45.6745 189.325 46.026 189.481 46.4688C189.663 46.8854 189.767 47.3932 189.793 47.9922C189.819 48.5651 189.793 49.1641 189.715 49.7891C190.132 49.2422 190.588 48.6953 191.083 48.1484C191.603 47.5755 192.137 47.0677 192.684 46.625C193.257 46.1823 193.843 45.8177 194.442 45.5312C195.041 45.2448 195.64 45.1016 196.239 45.1016C196.942 45.1016 197.476 45.3099 197.84 45.7266C198.231 46.1432 198.491 46.6771 198.622 47.3281C198.778 47.9792 198.817 48.6823 198.739 49.4375C198.687 50.1927 198.583 50.9219 198.426 51.625L197.098 56.8984C196.812 58.2005 197.085 58.8516 197.918 58.8516C198.569 58.8516 199.286 58.5391 200.067 57.9141C200.848 57.2891 201.603 56.5469 202.333 55.6875C203.088 54.8281 203.791 53.9427 204.442 53.0312C205.093 52.1198 205.64 51.3906 206.083 50.8438C206.239 50.6615 206.395 50.5573 206.551 50.5312C206.734 50.5052 206.877 50.5443 206.981 50.6484C207.111 50.7266 207.176 50.8698 207.176 51.0781C207.202 51.2865 207.137 51.5469 206.981 51.8594C206.46 52.7708 205.822 53.7865 205.067 54.9062C204.312 56 203.478 57.0286 202.567 57.9922C201.681 58.9557 200.731 59.763 199.715 60.4141C198.7 61.0651 197.645 61.3906 196.551 61.3906C196.187 61.3906 195.822 61.3516 195.458 61.2734C195.119 61.1953 194.793 61.0521 194.481 60.8438C194.194 60.6354 193.96 60.362 193.778 60.0234C193.596 59.6589 193.504 59.2031 193.504 58.6562ZM212.606 37.4453C212.528 37.7318 212.372 38.0182 212.137 38.3047C211.929 38.5651 211.681 38.7865 211.395 38.9688C211.135 39.125 210.861 39.2292 210.575 39.2812C210.288 39.3333 210.054 39.2812 209.872 39.125C209.325 38.7083 209.038 38.2656 209.012 37.7969C208.986 37.3021 209.103 36.8464 209.364 36.4297C209.624 35.987 209.95 35.6224 210.34 35.3359C210.731 35.0234 211.069 34.8411 211.356 34.7891C211.642 34.737 211.877 34.8021 212.059 34.9844C212.267 35.1406 212.424 35.362 212.528 35.6484C212.632 35.9089 212.684 36.2083 212.684 36.5469C212.71 36.8854 212.684 37.1849 212.606 37.4453ZM207.215 45.7656C207.346 45.6094 207.593 45.4792 207.958 45.375C208.322 45.2708 208.7 45.1927 209.09 45.1406C209.481 45.0625 209.833 45.0234 210.145 45.0234C210.484 44.9974 210.679 44.9974 210.731 45.0234C210.757 45.0495 210.692 45.3229 210.536 45.8438C210.379 46.3646 210.184 46.9766 209.95 47.6797C209.715 48.3828 209.468 49.112 209.208 49.8672C208.947 50.5964 208.752 51.1953 208.622 51.6641C208.491 52.1328 208.335 52.6667 208.153 53.2656C207.971 53.8385 207.801 54.4115 207.645 54.9844C207.515 55.5312 207.424 56.0521 207.372 56.5469C207.319 57.0417 207.359 57.4193 207.489 57.6797C207.619 57.9922 207.762 58.2135 207.918 58.3438C208.075 58.4479 208.244 58.5 208.426 58.5C208.947 58.5 209.598 58.2135 210.379 57.6406C211.187 57.0677 211.994 56.3906 212.801 55.6094C213.635 54.8021 214.403 53.9948 215.106 53.1875C215.809 52.3542 216.33 51.6901 216.668 51.1953C216.877 50.9349 217.085 50.7656 217.293 50.6875C217.528 50.6094 217.71 50.6224 217.84 50.7266C217.997 50.8307 218.075 51 218.075 51.2344C218.101 51.4688 218.023 51.7422 217.84 52.0547C217.424 52.7839 216.812 53.6562 216.004 54.6719C215.197 55.6615 214.338 56.625 213.426 57.5625C212.515 58.474 211.616 59.2552 210.731 59.9062C209.872 60.5573 209.168 60.8958 208.622 60.9219C208.179 60.9479 207.736 60.8698 207.293 60.6875C206.877 60.5312 206.486 60.3099 206.122 60.0234C205.783 59.7109 205.497 59.3594 205.262 58.9688C205.028 58.5521 204.898 58.1224 204.872 57.6797C204.793 57.0286 204.793 56.1432 204.872 55.0234C204.95 53.8776 205.093 52.7188 205.301 51.5469C205.51 50.349 205.77 49.2161 206.083 48.1484C206.421 47.0807 206.799 46.2865 207.215 45.7656ZM214.403 59.8281C215.549 55.0104 216.46 51.1432 217.137 48.2266C217.84 45.3099 218.374 43.0833 218.739 41.5469C219.155 39.724 219.442 38.4609 219.598 37.7578C219.676 37.263 219.741 36.7812 219.793 36.3125C219.846 35.8958 219.872 35.4661 219.872 35.0234C219.872 34.5807 219.833 34.1771 219.754 33.8125C219.963 33.6823 220.184 33.5781 220.418 33.5C220.679 33.4219 220.926 33.3568 221.161 33.3047C221.447 33.2266 221.734 33.1615 222.02 33.1094C222.306 33.0573 222.567 33.0312 222.801 33.0312C223.01 33.0312 223.205 33.0573 223.387 33.1094C223.569 33.1354 223.687 33.2135 223.739 33.3438C223.895 33.474 223.96 33.7344 223.934 34.125C223.934 34.5156 223.908 34.9193 223.856 35.3359C223.752 35.8307 223.635 36.3646 223.504 36.9375C223.192 38.0573 222.762 39.6719 222.215 41.7812C221.747 43.5781 221.109 46.026 220.301 49.125C219.52 52.224 218.53 56.1302 217.333 60.8438C217.202 60.974 217.046 61.0651 216.864 61.1172C216.681 61.1693 216.512 61.1953 216.356 61.1953C216.174 61.1953 215.978 61.1823 215.77 61.1562C215.588 61.1042 215.405 61.026 215.223 60.9219C215.067 60.8177 214.911 60.6745 214.754 60.4922C214.598 60.3359 214.481 60.1146 214.403 59.8281ZM234.012 46.0781C234.351 45.8177 234.676 45.6224 234.989 45.4922C235.327 45.3359 235.627 45.2318 235.887 45.1797C236.174 45.1016 236.46 45.0755 236.747 45.1016C237.45 45.1536 237.879 45.375 238.036 45.7656C238.218 46.1562 238.244 46.7812 238.114 47.6406C238.036 48.0833 237.879 48.6432 237.645 49.3203C237.411 49.9974 237.137 50.8307 236.825 51.8203C236.512 52.7839 236.174 53.8906 235.809 55.1406C235.471 56.3906 235.145 57.7969 234.833 59.3594C234.52 60.6354 234.181 62.1068 233.817 63.7734C233.504 65.2318 233.127 66.9896 232.684 69.0469C232.267 71.1042 231.812 73.4609 231.317 76.1172C231.187 76.7682 230.9 77.1458 230.458 77.25C230.041 77.3542 229.598 77.3021 229.129 77.0938C228.947 76.9896 228.778 76.8724 228.622 76.7422C228.491 76.612 228.348 76.4557 228.192 76.2734C228.036 76.1172 227.905 75.8958 227.801 75.6094C228.4 73.4219 228.921 71.4297 229.364 69.6328C229.833 67.8359 230.249 66.2734 230.614 64.9453C231.004 63.4089 231.369 62.0286 231.708 60.8047C231.838 60.2578 231.955 59.724 232.059 59.2031C232.189 58.6562 232.319 58.1224 232.45 57.6016C232.111 58.1484 231.747 58.6693 231.356 59.1641C230.965 59.6589 230.536 60.0885 230.067 60.4531C229.598 60.8177 229.09 61.0911 228.543 61.2734C228.023 61.4818 227.476 61.5469 226.903 61.4688C225.497 61.2865 224.494 60.7656 223.895 59.9062C223.322 59.0469 223.075 57.9271 223.153 56.5469C223.179 56 223.257 55.401 223.387 54.75C223.517 54.099 223.661 53.474 223.817 52.875C223.973 52.276 224.116 51.7422 224.247 51.2734C224.403 50.7786 224.52 50.4271 224.598 50.2188C224.911 49.2292 225.132 48.3828 225.262 47.6797C225.418 46.9766 225.314 46.3906 224.95 45.9219C225.314 45.6875 225.653 45.5312 225.965 45.4531C226.304 45.349 226.603 45.2708 226.864 45.2188C227.15 45.1927 227.437 45.1927 227.723 45.2188C228.426 45.3229 228.83 45.5833 228.934 46C229.064 46.4167 229.025 47.0417 228.817 47.875C228.713 48.3177 228.543 48.8906 228.309 49.5938C228.075 50.2708 227.827 50.974 227.567 51.7031C227.306 52.4323 227.072 53.1094 226.864 53.7344C226.655 54.3333 226.538 54.763 226.512 55.0234C226.278 56.1953 226.265 57.1068 226.473 57.7578C226.681 58.3828 227.137 58.6953 227.84 58.6953C228.179 58.6953 228.556 58.5521 228.973 58.2656C229.39 57.9531 229.806 57.5495 230.223 57.0547C230.666 56.5599 231.096 56 231.512 55.375C231.929 54.724 232.306 54.0729 232.645 53.4219C233.01 52.7708 233.322 52.1328 233.583 51.5078C233.869 50.8828 234.077 50.3229 234.208 49.8281C234.39 48.8646 234.507 48.1094 234.559 47.5625C234.611 47.0156 234.429 46.5208 234.012 46.0781Z" fill="black"/>
</svg>
