<svg width="120" height="120" viewBox="0 0 120 120" fill="none" xmlns="http://www.w3.org/2000/svg">
<path d="M37.5 30C44.1275 30 49.5502 35.1577 49.9734 41.6781L49.9983 42.7117C49.9503 60.4835 43.7973 75.7775 31.4765 88.8245C30.0545 90.3305 27.6811 90.3985 26.1754 88.9765C24.6696 87.5545 24.6016 85.181 26.0236 83.6755C34.2266 74.9885 39.3248 65.3055 41.4115 54.38C40.1774 54.7815 38.8643 55 37.5 55C30.5965 55 25 49.4035 25 42.5C25 35.5964 30.5965 30 37.5 30ZM82.5 30C89.1275 30 94.55 35.1577 94.9735 41.6781L94.9985 42.7117C94.9505 60.5145 88.8125 75.78 76.4745 88.8265C75.0515 90.3315 72.678 90.3975 71.1735 88.9745C69.6685 87.5515 69.6025 85.178 71.0255 83.6735C79.2415 74.9855 84.3345 65.3155 86.416 54.381C85.1775 54.7815 83.8645 55 82.5 55C75.5965 55 70 49.4035 70 42.5C70 35.5964 75.5965 30 82.5 30Z" fill="#FFD600"/>
</svg>
