<svg width="204" height="58" viewBox="0 0 204 58" fill="none" xmlns="http://www.w3.org/2000/svg">
<path d="M7.25098 10.0078L13.9307 24.5977L20.6104 10.0078H27.7954L17.2705 30.3545V42H10.5908V30.3545L0.0439453 10.0078H7.25098ZM39.8145 42.4395C37.9688 42.4395 36.3135 42.1465 34.8486 41.5605C33.3838 40.96 32.1387 40.1323 31.1133 39.0776C30.1025 38.0229 29.3262 36.7998 28.7842 35.4082C28.2422 34.002 27.9712 32.5078 27.9712 30.9258V30.0469C27.9712 28.2451 28.2275 26.5972 28.7402 25.103C29.2529 23.6089 29.9854 22.3125 30.9375 21.2139C31.9043 20.1152 33.0762 19.2729 34.4531 18.687C35.8301 18.0864 37.3828 17.7861 39.1113 17.7861C40.7959 17.7861 42.29 18.0645 43.5938 18.6211C44.8975 19.1777 45.9888 19.9688 46.8677 20.9941C47.7612 22.0195 48.4351 23.25 48.8892 24.6855C49.3433 26.1064 49.5703 27.6885 49.5703 29.4316V32.0684H30.6738V27.8496H43.3521V27.3662C43.3521 26.4873 43.1909 25.7036 42.8687 25.0151C42.561 24.312 42.0923 23.7554 41.4624 23.3452C40.8325 22.9351 40.0269 22.73 39.0454 22.73C38.2104 22.73 37.4927 22.9131 36.8921 23.2793C36.2915 23.6455 35.8008 24.1582 35.4199 24.8174C35.0537 25.4766 34.7754 26.2529 34.585 27.1465C34.4092 28.0254 34.3213 28.9922 34.3213 30.0469V30.9258C34.3213 31.8779 34.4531 32.7568 34.7168 33.5625C34.9951 34.3682 35.3833 35.064 35.8813 35.6499C36.394 36.2358 37.0093 36.6899 37.7271 37.0122C38.4595 37.3345 39.2871 37.4956 40.21 37.4956C41.3525 37.4956 42.4146 37.2759 43.396 36.8364C44.3921 36.3823 45.249 35.7012 45.9668 34.793L49.043 38.1328C48.5449 38.8506 47.8638 39.5391 46.9995 40.1982C46.1499 40.8574 45.1245 41.3994 43.9233 41.8242C42.7222 42.2344 41.3525 42.4395 39.8145 42.4395ZM59.8535 8.25V42H53.5034V8.25H59.8535ZM71.7627 8.25V42H65.4126V8.25H71.7627ZM75.9814 30.3545V29.8931C75.9814 28.1499 76.2305 26.5459 76.7285 25.0811C77.2266 23.6016 77.9517 22.3198 78.9038 21.2358C79.856 20.1519 81.0278 19.3096 82.4194 18.709C83.811 18.0938 85.4077 17.7861 87.2095 17.7861C89.0112 17.7861 90.6152 18.0938 92.0215 18.709C93.4277 19.3096 94.6069 20.1519 95.5591 21.2358C96.5259 22.3198 97.2583 23.6016 97.7563 25.0811C98.2544 26.5459 98.5034 28.1499 98.5034 29.8931V30.3545C98.5034 32.083 98.2544 33.687 97.7563 35.1665C97.2583 36.6313 96.5259 37.9131 95.5591 39.0117C94.6069 40.0957 93.4351 40.938 92.0435 41.5386C90.6519 42.1392 89.0552 42.4395 87.2534 42.4395C85.4517 42.4395 83.8477 42.1392 82.4414 41.5386C81.0498 40.938 79.8706 40.0957 78.9038 39.0117C77.9517 37.9131 77.2266 36.6313 76.7285 35.1665C76.2305 33.687 75.9814 32.083 75.9814 30.3545ZM82.3096 29.8931V30.3545C82.3096 31.3506 82.3975 32.2808 82.5732 33.145C82.749 34.0093 83.0273 34.771 83.4082 35.4302C83.8037 36.0747 84.3164 36.5801 84.9463 36.9463C85.5762 37.3125 86.3452 37.4956 87.2534 37.4956C88.1323 37.4956 88.8867 37.3125 89.5166 36.9463C90.1465 36.5801 90.6519 36.0747 91.0327 35.4302C91.4136 34.771 91.6919 34.0093 91.8677 33.145C92.0581 32.2808 92.1533 31.3506 92.1533 30.3545V29.8931C92.1533 28.9263 92.0581 28.0181 91.8677 27.1685C91.6919 26.3042 91.4062 25.5425 91.0107 24.8833C90.6299 24.2095 90.1245 23.6821 89.4946 23.3013C88.8647 22.9204 88.103 22.73 87.2095 22.73C86.3159 22.73 85.5542 22.9204 84.9243 23.3013C84.3091 23.6821 83.8037 24.2095 83.4082 24.8833C83.0273 25.5425 82.749 26.3042 82.5732 27.1685C82.3975 28.0181 82.3096 28.9263 82.3096 29.8931ZM109.182 35.8477L114.126 18.2256H118.147L116.851 25.147L111.907 42H108.545L109.182 35.8477ZM106.677 18.2256L110.215 35.8257L110.544 42H106.589L100.569 18.2256H106.677ZM122.673 35.54L126.123 18.2256H132.253L126.233 42H122.3L122.673 35.54ZM118.696 18.2256L123.618 35.7158L124.299 42H120.916L115.972 25.1689L114.719 18.2256H118.696Z" fill="#FFD703"/>
<path d="M99.1859 40.3493C98.9711 40.1345 98.8148 39.9294 98.7172 39.7341C98.639 39.5193 98.5804 39.3142 98.5414 39.1189C98.5023 38.904 98.5023 38.6892 98.5414 38.4743C98.6195 38.2009 98.7367 37.947 98.8929 37.7126C99.0297 37.4978 99.2152 37.2829 99.4496 37.0681C99.684 36.8337 99.9965 36.6189 100.387 36.4236C100.641 35.7986 100.866 35.1443 101.061 34.4607C101.276 33.7575 101.461 33.1228 101.618 32.5564C101.793 31.8923 101.95 31.2282 102.086 30.5642C102.575 28.904 102.828 27.5564 102.848 26.5212C102.868 25.4665 102.848 24.7732 102.789 24.4411C102.77 24.3044 102.75 24.1677 102.731 24.031C102.692 23.9138 102.653 23.7868 102.614 23.6501C102.594 23.4939 102.565 23.3474 102.526 23.2107C102.741 23.0935 102.926 22.9958 103.082 22.9177C103.258 22.8396 103.405 22.781 103.522 22.7419C103.659 22.6833 103.786 22.6443 103.903 22.6247C104.352 22.5271 104.772 22.4782 105.162 22.4782C105.573 22.4587 105.797 22.5271 105.836 22.6833C105.856 22.781 105.875 22.9568 105.895 23.2107C105.934 23.4646 105.953 23.7771 105.953 24.1482C105.953 24.5193 105.924 24.9392 105.866 25.4079C105.807 25.8571 105.7 26.3357 105.543 26.8435C105.407 27.2927 105.221 27.9177 104.987 28.7185C104.772 29.4021 104.489 30.32 104.137 31.4724C103.786 32.6052 103.327 34.0603 102.76 35.8376C103.346 35.6423 103.991 35.4568 104.694 35.281C105.397 35.1052 106.11 34.9587 106.832 34.8415C107.575 34.7243 108.307 34.6364 109.03 34.5779C109.772 34.5193 110.455 34.5095 111.08 34.5486C111.198 34.5486 111.276 34.6071 111.315 34.7243C111.373 34.822 111.373 34.9294 111.315 35.0466C111.276 35.1638 111.168 35.281 110.993 35.3982C110.836 35.4958 110.602 35.5544 110.289 35.5739C109.899 35.613 109.469 35.6618 109 35.7204C108.532 35.7595 108.043 35.8279 107.536 35.9255C107.047 36.0036 106.559 36.1111 106.071 36.2478C105.582 36.365 105.123 36.5114 104.694 36.6872C104.362 36.8044 104.03 36.9216 103.698 37.0388C103.424 37.1364 103.131 37.2536 102.819 37.3904C102.526 37.5075 102.282 37.615 102.086 37.7126L101.412 39.8513C102.545 40.6521 103.414 41.4724 104.02 42.3122C104.645 43.1521 105.094 43.9236 105.368 44.6267C105.7 45.447 105.885 46.2478 105.924 47.029C105.924 47.8884 105.797 48.7478 105.543 49.6071C105.289 50.4861 104.948 51.3161 104.518 52.0974C104.108 52.8982 103.62 53.6404 103.053 54.3239C102.506 55.0075 101.92 55.5935 101.295 56.0818C100.69 56.57 100.065 56.9411 99.4203 57.195C98.7953 57.4489 98.1996 57.5466 97.6332 57.488C97.223 57.4489 96.8812 57.3122 96.6078 57.0779C96.3344 56.863 96.1293 56.5798 95.9926 56.2282C95.8558 55.8962 95.7777 55.5154 95.7582 55.0857C95.7386 54.6755 95.7777 54.2654 95.8754 53.8552C95.9535 53.445 96.1195 52.6833 96.3734 51.57C96.5883 50.6325 96.9203 49.2654 97.3695 47.4685C97.8187 45.6911 98.4242 43.3181 99.1859 40.3493ZM100.914 41.7263C100.641 42.7029 100.397 43.6013 100.182 44.4216C99.9867 45.2419 99.8207 45.9646 99.684 46.5896C99.5082 47.3122 99.3715 47.9665 99.2738 48.5525C99.098 49.2946 98.9125 50.0271 98.7172 50.7497C98.5414 51.4724 98.4047 52.1169 98.307 52.6833C98.1898 53.2693 98.141 53.738 98.1605 54.0896C98.1801 54.4411 98.307 54.6169 98.5414 54.6169C99.1078 54.656 99.6937 54.4314 100.299 53.9431C100.924 53.4743 101.491 52.8689 101.998 52.1267C102.506 51.404 102.926 50.613 103.258 49.7536C103.59 48.9138 103.756 48.1325 103.756 47.4099C103.756 46.6091 103.629 45.8181 103.375 45.0368C103.2 44.6267 102.995 44.2263 102.76 43.8357C102.545 43.5036 102.282 43.1521 101.969 42.781C101.676 42.3904 101.325 42.0388 100.914 41.7263ZM123.385 37.5661C123.112 37.9568 122.76 38.445 122.33 39.031C121.901 39.5974 121.452 40.1736 120.983 40.7595C120.534 41.3259 120.084 41.8532 119.635 42.3415C119.205 42.8103 118.844 43.1423 118.551 43.3376C118.356 43.4548 118.131 43.5525 117.877 43.6306C117.623 43.7087 117.36 43.7575 117.086 43.7771C116.832 43.7966 116.588 43.7771 116.354 43.7185C116.12 43.6794 115.914 43.6013 115.739 43.4841C115.563 43.3474 115.416 43.1521 115.299 42.8982C115.202 42.6833 115.104 42.4001 115.006 42.0486C114.928 41.697 114.899 41.2575 114.918 40.7302C114.45 41.5114 113.932 42.1169 113.366 42.5466C112.799 42.9568 112.262 43.2595 111.754 43.4548C111.168 43.6696 110.582 43.7966 109.996 43.8357C109.723 43.8357 109.43 43.738 109.118 43.5427C108.805 43.3669 108.541 43.0837 108.327 42.6931C108.112 42.2829 107.975 41.7654 107.916 41.1404C107.858 40.4958 107.936 39.7341 108.151 38.8552C108.424 37.6638 108.854 36.5798 109.44 35.6032C110.045 34.6267 110.7 33.7966 111.403 33.113C112.106 32.4099 112.799 31.8825 113.483 31.531C114.166 31.1794 114.733 31.0232 115.182 31.0622C115.709 31.1599 116.139 31.3161 116.471 31.531C116.745 31.7263 116.92 32.0193 116.998 32.4099C117.096 32.781 116.94 33.279 116.53 33.904C116.803 33.8454 117.028 33.8064 117.203 33.7868C117.399 33.7673 117.545 33.7575 117.643 33.7575C117.76 33.7575 117.838 33.7673 117.877 33.7868C117.897 33.8259 117.907 33.9138 117.907 34.0505C117.907 34.1677 117.877 34.3923 117.819 34.7243C117.76 35.0564 117.672 35.5056 117.555 36.072C117.438 36.6384 117.282 37.3708 117.086 38.2693C117.047 38.445 117.008 38.6111 116.969 38.7673C116.95 38.904 116.92 39.0505 116.881 39.2068C116.862 39.3435 116.832 39.5095 116.793 39.7048C116.754 39.9001 116.705 40.1443 116.647 40.4372C116.627 40.613 116.618 40.8083 116.618 41.0232C116.637 41.2185 116.676 41.404 116.735 41.5798C116.793 41.7556 116.881 41.9021 116.998 42.0193C117.135 42.1169 117.321 42.1657 117.555 42.1657C117.75 42.1657 118.004 42.0486 118.317 41.8142C118.629 41.5603 118.961 41.2478 119.313 40.8767C119.664 40.4861 120.026 40.0661 120.397 39.6169C120.787 39.1482 121.149 38.6989 121.481 38.2693C121.813 37.8396 122.106 37.4587 122.36 37.1267C122.633 36.7946 122.828 36.5505 122.946 36.3943C123.102 36.2185 123.258 36.1208 123.414 36.1013C123.571 36.0622 123.688 36.1013 123.766 36.2185C123.844 36.3357 123.854 36.5114 123.795 36.7458C123.756 36.9802 123.62 37.2536 123.385 37.5661ZM114.801 38.8552C114.899 38.4646 115.016 38.0056 115.153 37.4782C115.289 36.9509 115.407 36.4431 115.504 35.9548C115.602 35.4665 115.67 35.0661 115.709 34.7536C115.768 34.4216 115.758 34.2654 115.68 34.2849C115.582 34.3044 115.475 34.3337 115.358 34.3728C115.26 34.4118 115.133 34.4411 114.977 34.4607C114.821 34.4802 114.664 34.5095 114.508 34.5486C114.664 34.2361 114.752 33.9821 114.772 33.7868C114.811 33.572 114.821 33.406 114.801 33.2888C114.782 33.1521 114.743 33.0446 114.684 32.9665C114.469 32.7907 114.088 32.9372 113.541 33.406C113.014 33.8552 112.399 34.695 111.696 35.9255C111.403 36.4333 111.168 36.9802 110.993 37.5661C110.817 38.1325 110.69 38.6696 110.612 39.1775C110.553 39.6853 110.543 40.1345 110.582 40.5251C110.621 40.8962 110.7 41.1404 110.817 41.2575C111.032 41.4724 111.276 41.5798 111.549 41.5798C111.823 41.5603 112.096 41.4821 112.37 41.3454C112.662 41.1892 112.946 40.9939 113.219 40.7595C113.512 40.5251 113.766 40.281 113.981 40.0271C114.215 39.7732 114.401 39.5388 114.537 39.3239C114.694 39.1091 114.782 38.9529 114.801 38.8552ZM135.075 42.0486C135.075 41.6384 135.114 41.1696 135.192 40.6423C135.289 40.115 135.407 39.5779 135.543 39.031C135.68 38.4646 135.817 37.9177 135.953 37.3904C136.09 36.863 136.207 36.3943 136.305 35.9841C136.422 35.4763 136.412 35.0857 136.276 34.8122C136.139 34.5388 135.905 34.4021 135.573 34.4021C135.416 34.4021 135.104 34.5388 134.635 34.8122C134.186 35.0857 133.688 35.5642 133.141 36.2478C132.614 36.9118 132.086 37.82 131.559 38.9724C131.051 40.1052 130.651 41.5505 130.358 43.3083C129.987 43.5036 129.635 43.6306 129.303 43.6892C129.127 43.7282 128.971 43.7575 128.834 43.7771C128.444 43.7966 128.19 43.7282 128.073 43.572C127.955 43.4353 127.975 43.0837 128.131 42.5173C128.209 42.2439 128.346 41.8044 128.541 41.1989C128.756 40.5935 128.961 39.9392 129.157 39.2361C129.352 38.5134 129.518 37.8005 129.655 37.0974C129.811 36.3747 129.889 35.7497 129.889 35.2224C129.889 34.8513 129.821 34.5974 129.684 34.4607C129.567 34.3239 129.391 34.2556 129.157 34.2556C128.981 34.2556 128.688 34.3532 128.278 34.5486C127.868 34.7439 127.409 35.1247 126.901 35.6911C126.393 36.2575 125.885 37.0486 125.377 38.0642C124.889 39.0603 124.469 40.3591 124.118 41.9607V41.9021C124.078 42.0583 124.039 42.2146 124 42.3708C123.961 42.5075 123.932 42.654 123.912 42.8103C123.893 42.9665 123.864 43.113 123.825 43.2497L122.36 43.8943C122.262 43.9333 122.135 43.9626 121.979 43.9821C121.842 44.0017 121.705 43.9724 121.569 43.8943C121.452 43.8357 121.364 43.6989 121.305 43.4841C121.246 43.2693 121.266 42.947 121.364 42.5173L123.209 34.8708C123.268 34.6169 123.317 34.3728 123.356 34.1384C123.395 33.9236 123.414 33.7185 123.414 33.5232C123.434 33.3083 123.424 33.1325 123.385 32.9958C123.717 32.8396 124.01 32.7224 124.264 32.6443C124.518 32.5661 124.723 32.5075 124.879 32.4685C125.075 32.4099 125.241 32.3806 125.377 32.3806C126.002 32.3806 126.207 32.9177 125.993 33.9919C125.914 34.3044 125.797 34.7634 125.641 35.3689C126.012 34.9001 126.403 34.4607 126.813 34.0505C127.243 33.6208 127.672 33.24 128.102 32.9079C128.532 32.5759 128.961 32.3122 129.391 32.1169C129.84 31.9216 130.28 31.8239 130.709 31.8239C131.041 31.8239 131.315 31.9216 131.53 32.1169C131.764 32.3122 131.94 32.5759 132.057 32.9079C132.194 33.2204 132.272 33.6013 132.291 34.0505C132.311 34.4802 132.291 34.9294 132.233 35.3982C132.545 34.988 132.887 34.5779 133.258 34.1677C133.649 33.738 134.049 33.3571 134.459 33.0251C134.889 32.6931 135.328 32.4196 135.778 32.2048C136.227 31.99 136.676 31.8825 137.125 31.8825C137.653 31.8825 138.053 32.0388 138.327 32.3513C138.62 32.6638 138.815 33.0642 138.912 33.5525C139.03 34.0407 139.059 34.5681 139 35.1345C138.961 35.7009 138.883 36.2478 138.766 36.7751L137.77 40.7302C137.555 41.7068 137.76 42.195 138.385 42.195C138.873 42.195 139.411 41.9607 139.996 41.4919C140.582 41.0232 141.149 40.4665 141.696 39.822C142.262 39.1775 142.789 38.5134 143.278 37.8298C143.766 37.1462 144.176 36.5993 144.508 36.1892C144.625 36.0525 144.743 35.9743 144.86 35.9548C144.996 35.9353 145.104 35.9646 145.182 36.0427C145.28 36.1013 145.328 36.2087 145.328 36.365C145.348 36.5212 145.299 36.7165 145.182 36.9509C144.791 37.6345 144.313 38.3962 143.746 39.2361C143.18 40.0564 142.555 40.8279 141.871 41.5505C141.207 42.2732 140.495 42.8786 139.733 43.3669C138.971 43.8552 138.18 44.0993 137.36 44.0993C137.086 44.0993 136.813 44.07 136.539 44.0114C136.286 43.9529 136.041 43.8454 135.807 43.6892C135.592 43.5329 135.416 43.3279 135.28 43.0739C135.143 42.8005 135.075 42.4587 135.075 42.0486ZM149.401 26.1404C149.342 26.3552 149.225 26.57 149.049 26.7849C148.893 26.9802 148.707 27.1462 148.493 27.2829C148.297 27.4001 148.092 27.4782 147.877 27.5173C147.662 27.5564 147.487 27.5173 147.35 27.4001C146.94 27.0876 146.725 26.7556 146.705 26.404C146.686 26.0329 146.774 25.6911 146.969 25.3786C147.164 25.0466 147.409 24.7732 147.702 24.5583C147.995 24.3239 148.248 24.1872 148.463 24.1482C148.678 24.1091 148.854 24.1579 148.991 24.2946C149.147 24.4118 149.264 24.5779 149.342 24.7927C149.42 24.988 149.459 25.2126 149.459 25.4665C149.479 25.7204 149.459 25.945 149.401 26.1404ZM145.358 32.3806C145.455 32.2634 145.641 32.1657 145.914 32.0876C146.188 32.0095 146.471 31.9509 146.764 31.9118C147.057 31.8532 147.321 31.8239 147.555 31.8239C147.809 31.8044 147.955 31.8044 147.995 31.8239C148.014 31.8435 147.965 32.0486 147.848 32.4392C147.731 32.8298 147.584 33.2888 147.409 33.8161C147.233 34.3435 147.047 34.8904 146.852 35.4568C146.657 36.0036 146.51 36.4529 146.412 36.8044C146.315 37.156 146.198 37.5564 146.061 38.0056C145.924 38.4353 145.797 38.865 145.68 39.2946C145.582 39.7048 145.514 40.0954 145.475 40.4665C145.436 40.8376 145.465 41.1208 145.563 41.3161C145.661 41.5505 145.768 41.7165 145.885 41.8142C146.002 41.8923 146.129 41.9314 146.266 41.9314C146.657 41.9314 147.145 41.7165 147.731 41.2868C148.336 40.8571 148.942 40.3493 149.547 39.7634C150.172 39.1579 150.748 38.5525 151.276 37.947C151.803 37.322 152.194 36.8239 152.448 36.4529C152.604 36.2575 152.76 36.1306 152.916 36.072C153.092 36.0134 153.229 36.0232 153.327 36.1013C153.444 36.1794 153.502 36.3064 153.502 36.4821C153.522 36.6579 153.463 36.863 153.327 37.0974C153.014 37.6443 152.555 38.2986 151.95 39.0603C151.344 39.8025 150.7 40.5251 150.016 41.2282C149.332 41.9118 148.659 42.4978 147.995 42.9861C147.35 43.4743 146.823 43.7282 146.412 43.7478C146.08 43.7673 145.748 43.7087 145.416 43.572C145.104 43.4548 144.811 43.2888 144.537 43.0739C144.284 42.8396 144.069 42.5759 143.893 42.2829C143.717 41.9704 143.62 41.6482 143.6 41.3161C143.541 40.8279 143.541 40.1638 143.6 39.3239C143.659 38.4646 143.766 37.5954 143.922 36.7165C144.078 35.8181 144.274 34.9685 144.508 34.1677C144.762 33.3669 145.045 32.7712 145.358 32.3806ZM150.748 42.9275C151.608 39.3142 152.291 36.4138 152.799 34.2263C153.327 32.0388 153.727 30.3689 154 29.2165C154.313 27.8493 154.528 26.9021 154.645 26.3747C154.703 26.0036 154.752 25.6423 154.791 25.2907C154.83 24.9782 154.85 24.656 154.85 24.3239C154.85 23.9919 154.821 23.6892 154.762 23.4157C154.918 23.3181 155.084 23.24 155.26 23.1814C155.455 23.1228 155.641 23.0739 155.817 23.0349C156.032 22.9763 156.246 22.9275 156.461 22.8884C156.676 22.8493 156.871 22.8298 157.047 22.8298C157.203 22.8298 157.35 22.8493 157.487 22.8884C157.623 22.9079 157.711 22.9665 157.75 23.0642C157.868 23.1618 157.916 23.3571 157.897 23.6501C157.897 23.9431 157.877 24.2458 157.838 24.5583C157.76 24.9294 157.672 25.3298 157.575 25.7595C157.34 26.5993 157.018 27.8103 156.608 29.3923C156.256 30.74 155.778 32.5759 155.172 34.9001C154.586 37.2243 153.844 40.154 152.946 43.6892C152.848 43.7868 152.731 43.8552 152.594 43.8943C152.457 43.9333 152.33 43.9529 152.213 43.9529C152.077 43.9529 151.93 43.9431 151.774 43.9236C151.637 43.8845 151.5 43.8259 151.364 43.7478C151.246 43.6696 151.129 43.5622 151.012 43.4255C150.895 43.3083 150.807 43.1423 150.748 42.9275ZM165.455 32.615C165.709 32.4196 165.953 32.2732 166.188 32.1755C166.442 32.0583 166.666 31.9802 166.862 31.9411C167.077 31.8825 167.291 31.863 167.506 31.8825C168.034 31.9216 168.356 32.0876 168.473 32.3806C168.61 32.6736 168.629 33.1423 168.532 33.7868C168.473 34.1189 168.356 34.5388 168.18 35.0466C168.004 35.5544 167.799 36.1794 167.565 36.9216C167.33 37.6443 167.077 38.4743 166.803 39.4118C166.549 40.3493 166.305 41.404 166.071 42.5759C165.836 43.5329 165.582 44.6364 165.309 45.8864C165.075 46.9802 164.791 48.2986 164.459 49.8415C164.147 51.3845 163.805 53.1521 163.434 55.1443C163.336 55.6325 163.121 55.9157 162.789 55.9939C162.477 56.072 162.145 56.0329 161.793 55.8767C161.657 55.7986 161.53 55.7107 161.412 55.613C161.315 55.5154 161.207 55.3982 161.09 55.2614C160.973 55.1443 160.875 54.9782 160.797 54.7634C161.246 53.1228 161.637 51.6286 161.969 50.281C162.321 48.9333 162.633 47.7614 162.907 46.7654C163.2 45.613 163.473 44.5779 163.727 43.6599C163.825 43.2497 163.912 42.8493 163.991 42.4587C164.088 42.0486 164.186 41.6482 164.284 41.2575C164.03 41.6677 163.756 42.0583 163.463 42.4294C163.17 42.8005 162.848 43.1228 162.496 43.3962C162.145 43.6696 161.764 43.8747 161.354 44.0114C160.963 44.1677 160.553 44.2165 160.123 44.1579C159.069 44.0212 158.317 43.6306 157.868 42.9861C157.438 42.3415 157.252 41.5017 157.311 40.4665C157.33 40.0564 157.389 39.6071 157.487 39.1189C157.584 38.6306 157.692 38.1618 157.809 37.7126C157.926 37.2634 158.034 36.863 158.131 36.5114C158.248 36.1404 158.336 35.8767 158.395 35.7204C158.629 34.9782 158.795 34.3435 158.893 33.8161C159.01 33.2888 158.932 32.8493 158.659 32.4978C158.932 32.322 159.186 32.2048 159.42 32.1462C159.674 32.0681 159.899 32.0095 160.094 31.9704C160.309 31.9509 160.524 31.9509 160.739 31.9704C161.266 32.0486 161.569 32.2439 161.647 32.5564C161.745 32.8689 161.715 33.3376 161.559 33.9626C161.481 34.2946 161.354 34.7243 161.178 35.2517C161.002 35.7595 160.817 36.2868 160.621 36.8337C160.426 37.3806 160.25 37.8884 160.094 38.3571C159.938 38.8064 159.85 39.1286 159.83 39.3239C159.655 40.2029 159.645 40.8864 159.801 41.3747C159.957 41.8435 160.299 42.0779 160.827 42.0779C161.08 42.0779 161.364 41.9704 161.676 41.7556C161.989 41.5212 162.301 41.2185 162.614 40.8474C162.946 40.4763 163.268 40.0564 163.58 39.5876C163.893 39.0993 164.176 38.6111 164.43 38.1228C164.703 37.6345 164.938 37.156 165.133 36.6872C165.348 36.2185 165.504 35.7986 165.602 35.4275C165.739 34.7048 165.827 34.1384 165.866 33.7282C165.905 33.3181 165.768 32.947 165.455 32.615Z" fill="black"/>
</svg>
